<svg height="512" viewBox="0 0 32 59" width="512" xmlns="http://www.w3.org/2000/svg"><g id="Page-1" fill="none" fill-rule="evenodd"><g id="003---LED" fill="rgb(0,0,0)" fill-rule="nonzero"><rect id="Rectangle-path" height="5" rx="1" width="32" y="36"/><path id="Shape" d="m6 45c0 1.1045695.8954305 2 2 2v11c0 .5522847.44771525 1 1 1s1-.4477153 1-1v-11c1.1045695 0 2-.8954305 2-2v-2h-6z"/><path id="Shape" d="m20 45c0 1.1045695.8954305 2 2 2v11c0 .5522847.4477153 1 1 1s1-.4477153 1-1v-11c1.1045695 0 2-.8954305 2-2v-2h-6z"/><path id="Shape" d="m22 28v-4h-1.43l-2.33 4z"/><path id="Shape" d="m10 24v4h1.426l2.333-4z"/><path id="Shape" d="m8 23c0-.5522847.44771525-1 1-1h6.5c.3585832-.0035225.691095.1869477.8694572.4980445.1783622.3110969.1747454.6942808-.0094572 1.0019555l-3.5 6c-.1755759.3095074-.5041609.5005452-.86.5h-2v4h12v-4h-5.5c-.3585832.0035225-.691095-.1869477-.8694572-.4980445-.1783622-.3110969-.1747454-.6942808.0094572-1.0019555l3.5-6c.1755759-.3095074.5041609-.5005452.86-.5h3c.5522847 0 1 .4477153 1 1v11h5v-21c0-7.17970175-5.8202983-13-13-13-7.17970175 0-13 5.82029825-13 13v21h5zm2.44-18.31c1.6429208-1.10605383 3.5794642-1.69467944 5.56-1.69.5522847 0 1 .44771525 1 1s-.4477153 1-1 1c-1.5813529-.00177506-3.1272803.46827044-4.44 1.35-.1646841.11302895-.3602737.17240435-.56.17-.3321039-.00159138-.6422908-.16602778-.83-.44-.1488534-.22002824-.20404171-.49024214-.1533875-.75101771.0506543-.26077556.2029878-.49067947.4233875-.63898229zm-3.44 9.31c-.55228475 0-1-.4477153-1-1-.00401427-1.5440155.35208154-3.06769466 1.04-4.45.25340006-.49140349.85243786-.69108276 1.35-.45.49294631.25244172.68952109.8555689.44 1.35-.54917344 1.1026131-.83338064 2.3181982-.83 3.55 0 .2652165-.10535684.5195704-.29289322.7071068s-.44189029.2928932-.70710678.2928932z"/></g></g></svg>